<svg width="104" height="24" viewBox="0 0 104 24" fill="none" xmlns="http://www.w3.org/2000/svg">
<path d="M10.6176 16.3695C11.6941 16.3695 12.5807 15.4829 12.5807 14.4064C12.5807 13.3299 11.6941 12.4434 10.6176 12.4434C9.54108 12.4434 8.65454 13.3299 8.65454 14.4064C8.65454 15.4829 9.54108 16.3695 10.6176 16.3695Z" fill="#27AAE1"/>
<path d="M4.75994 11.0817C4.31667 11.0817 3.8734 10.9234 3.52512 10.6068C2.76522 9.9102 2.73357 8.7387 3.43013 8.01046C5.26655 5.98408 7.89451 4.84424 10.6491 4.84424C13.2771 4.84424 15.7151 5.85743 17.5832 7.7255C18.3114 8.45374 18.3114 9.62524 17.5832 10.3218C16.8549 11.05 15.6834 11.05 14.9869 10.3218C13.847 9.18197 12.2956 8.51706 10.6808 8.51706C8.97103 8.51706 7.32459 9.24529 6.18475 10.4801C5.77314 10.8917 5.26654 11.0817 4.75994 11.0817Z" fill="#27AAE1"/>
<path d="M8.02125 23.9999C7.83127 23.9999 7.60964 23.9683 7.41967 23.905C3.46188 22.5435 0.802246 18.8073 0.802246 14.6279C0.802246 13.6147 1.62547 12.7915 2.63866 12.7915C3.65186 12.7915 4.47507 13.6147 4.47507 14.6279C4.47507 17.2242 6.12151 19.5672 8.59116 20.3904C9.54103 20.7387 10.0793 21.7836 9.73101 22.7335C9.50937 23.4933 8.8128 23.9999 8.02125 23.9999Z" fill="#27AAE1"/>
<path d="M13.2457 23.9683C12.4858 23.9683 11.7575 23.4933 11.5042 22.7335C11.156 21.7836 11.6942 20.7071 12.6441 20.3904C15.1137 19.5356 16.7602 17.2242 16.7602 14.6279C16.7602 13.6147 17.5834 12.7915 18.5966 12.7915C19.6098 12.7915 20.433 13.6147 20.433 14.6279C20.433 18.8073 17.7734 22.5118 13.8472 23.8733C13.6256 23.9366 13.4356 23.9683 13.2457 23.9683Z" fill="#27AAE1"/>
<path d="M33.3511 18.8391C32.8762 18.9658 32.3696 19.0607 31.7996 19.0607C31.2931 19.0607 30.7865 18.9658 30.3115 18.8074C29.8366 18.6175 29.3933 18.3958 29.0134 18.0792C28.6334 17.7626 28.3168 17.4143 28.0952 16.971C27.8735 16.5278 27.7469 16.0845 27.6836 15.5462H38.5754C38.5437 13.5515 38.4171 12.1584 38.0688 11.2085C37.7205 10.227 37.2456 9.43542 36.6123 8.80217C35.9791 8.16893 35.2508 7.66233 34.4276 7.34571C33.5727 7.02909 32.6545 6.83911 31.673 6.83911C30.5965 6.83911 29.5833 7.02909 28.6651 7.37737C27.7469 7.75732 26.9237 8.26392 26.2588 8.92882C25.5938 9.59373 25.0556 10.4169 24.6756 11.3352C24.2957 12.285 24.1057 13.3299 24.1057 14.5014C24.1057 15.6729 24.2957 16.7177 24.6756 17.6676C25.0556 18.5858 25.5938 19.3774 26.2904 20.0106C26.987 20.6439 27.7785 21.1505 28.7284 21.4987C29.6783 21.847 30.6915 22.037 31.7996 22.037C33.0028 22.037 34.0477 21.847 34.9975 21.4671C34.0477 20.9288 33.3828 19.979 33.3511 18.8391ZM28.95 10.4803C29.7099 9.84703 30.5965 9.49874 31.673 9.49874C32.2429 9.49874 32.7495 9.59373 33.1928 9.7837C33.6361 9.97368 33.9843 10.227 34.2376 10.5436C34.5226 10.8602 34.7126 11.2402 34.8392 11.6518C34.9659 12.0634 35.0292 12.5067 35.0292 12.9816H27.6836C27.7785 11.9684 28.1902 11.1135 28.95 10.4803Z" fill="#414042"/>
<path d="M36.3589 16.876C35.3457 16.876 34.5225 17.6992 34.5225 18.7124C34.5225 19.7256 35.3457 20.5488 36.3589 20.5488C37.3721 20.5488 38.1953 19.7256 38.1953 18.7124C38.1636 17.6992 37.3721 16.876 36.3589 16.876Z" fill="#27AAE1"/>
<path d="M50.1004 11.5883C49.4355 10.7651 48.549 10.3535 47.4725 10.3535C46.7126 10.3535 45.7944 10.7017 45.7944 11.5566C45.7944 13.7413 53.4566 11.9049 53.4566 17.5091C53.4566 21.2769 49.8155 22.3534 46.6809 22.3534C44.6229 22.3534 42.3432 21.8469 40.8867 20.3587L43.6413 17.2875C44.4962 18.3323 45.4778 18.9023 46.8392 18.9023C47.8841 18.9023 48.8973 18.6173 48.8973 17.8257C48.8973 15.4511 41.235 17.4775 41.235 11.8416C41.235 8.39039 44.3379 6.87061 47.4091 6.87061C49.3405 6.87061 51.4936 7.34554 52.8551 8.802L50.1004 11.5883Z" fill="#414042"/>
<path d="M68.7811 22.0052H64.4117V20.0105H64.3484C63.7468 21.1503 62.2587 22.3851 60.0423 22.3851C55.4513 22.3851 54.5964 19.3455 54.5964 15.4194V7.28223H59.1241V14.5012C59.1241 16.211 59.1558 18.3957 61.4988 18.3957C63.8735 18.3957 64.2218 16.5593 64.2218 14.6279V7.28223H68.7811V22.0052Z" fill="#414042"/>
<path d="M73.1188 0C74.5753 0 75.7468 1.1715 75.7468 2.62797C75.7468 4.08443 74.5753 5.25593 73.1188 5.25593C71.6624 5.25593 70.4908 4.08443 70.4908 2.62797C70.4592 1.1715 71.6624 0 73.1188 0ZM70.8391 7.25066H75.3985V21.9736H70.8391V7.25066Z" fill="#414042"/>
<path d="M87.4617 10.8917H83.4723V15.7994C83.4723 17.3825 83.6623 18.5223 85.6253 18.5223C86.1003 18.5223 87.0818 18.459 87.4617 18.1107V21.9102C86.4486 22.2585 85.3404 22.3535 84.2639 22.3535C81.2243 22.3535 78.9129 21.1186 78.9129 17.8891V10.8917H76V7.25057H78.9129V2.91284H83.4723V7.28223H87.4617V10.8917Z" fill="#414042"/>
<path d="M102.501 19.4406C101.045 21.277 98.6386 22.3535 96.2956 22.3535C91.7362 22.3535 88.1267 19.314 88.1267 14.6279C88.1267 9.94192 91.7679 6.90234 96.2956 6.90234C100.538 6.90234 103.198 9.94192 103.198 14.6279V16.0527H92.6544C93.0027 17.7942 94.3325 18.9023 96.0739 18.9023C97.5621 18.9023 98.5436 18.1424 99.3035 17.1293L102.501 19.4406ZM98.6703 12.9498C98.7019 11.43 97.5304 10.1636 95.884 10.1636C93.8892 10.1636 92.7811 11.525 92.6861 12.9498H98.6703Z" fill="#414042"/>
</svg>
