<svg width="20" height="18" viewBox="0 0 20 18" fill="none" xmlns="http://www.w3.org/2000/svg">
<path d="M9.99992 11.9999C8.3407 11.9999 6.99992 10.6591 6.99992 8.99992M7.99992 6.76215C8.53034 6.28792 9.23093 5.99992 9.99992 5.99992C11.6591 5.99992 12.9999 7.3407 12.9999 8.99992C12.9999 9.76897 12.7119 10.4696 12.2376 11M2.64885 5C2.28635 5.46145 1.94285 5.95917 1.62085 6.49124C0.793051 7.85438 0.793051 10.1456 1.62085 11.5088C3.72713 14.9891 6.75319 17 10 17C11.3472 17 12.6565 16.6538 13.8777 16M4.61316 3C6.23494 1.70405 8.07883 1 10 1C13.2468 1 16.2729 3.01088 18.3792 6.49124C19.2069 7.85438 19.2069 10.1456 18.3792 11.5088C17.6791 12.6654 16.8775 13.6598 16 14.472M2 1L18 17" stroke="#667A8E" stroke-width="1.5" stroke-linecap="round" stroke-linejoin="round"/>
</svg>
