<svg width="20" height="18" viewBox="0 0 20 18" fill="none" xmlns="http://www.w3.org/2000/svg">
<path d="M12.9999 8.99992C12.9999 10.6591 11.6591 11.9999 9.99992 11.9999C8.3407 11.9999 6.99992 10.6591 6.99992 8.99992C6.99992 7.3407 8.3407 5.99992 9.99992 5.99992C11.6591 5.99992 12.9999 7.3407 12.9999 8.99992Z" stroke="#000F1F" stroke-width="1.5" stroke-linecap="round" stroke-linejoin="round"/>
<path d="M10 17C13.2468 17 16.2729 14.9891 18.3792 11.5088C19.2069 10.1456 19.2069 7.85438 18.3792 6.49124C16.2729 3.01088 13.2468 1 10 1C6.75319 1 3.72713 3.01088 1.62085 6.49124C0.793051 7.85438 0.793051 10.1456 1.62085 11.5088C3.72713 14.9891 6.75319 17 10 17Z" stroke="#000F1F" stroke-width="1.5" stroke-linecap="round" stroke-linejoin="round"/>
</svg>
