<svg width="21" height="20" viewBox="0 0 21 20" fill="none" xmlns="http://www.w3.org/2000/svg">
<g clip-path="url(#clip0_1690_221374)">
<path d="M7.46721 0.657291C5.4689 1.35052 3.74556 2.6663 2.55032 4.41136C1.35508 6.15641 0.750946 8.23877 0.826651 10.3525C0.902355 12.4663 1.65391 14.5001 2.97092 16.1552C4.28794 17.8103 6.10099 18.9994 8.14377 19.5479C9.7999 19.9753 11.535 19.994 13.2 19.6026C14.7083 19.2638 16.1028 18.5391 17.2469 17.4995C18.4376 16.3844 19.302 14.9659 19.7469 13.3964C20.2304 11.6896 20.3164 9.8947 19.9985 8.14948H10.6985V12.0073H16.0844C15.9768 12.6226 15.7461 13.2098 15.4062 13.7339C15.0663 14.258 14.6242 14.7081 14.1063 15.0573C13.4487 15.4925 12.7073 15.7852 11.9297 15.9167C11.1499 16.0617 10.3501 16.0617 9.57033 15.9167C8.77995 15.7534 8.03227 15.4272 7.37502 14.9589C6.319 14.2113 5.52608 13.1494 5.1094 11.9245C4.68579 10.6766 4.68579 9.32388 5.1094 8.07604C5.406 7.20138 5.89632 6.405 6.54377 5.74635C7.2847 4.97877 8.22273 4.4301 9.25495 4.16053C10.2872 3.89097 11.3737 3.91093 12.3953 4.21823C13.1935 4.46311 13.9233 4.89116 14.5266 5.46823C15.1339 4.86406 15.7401 4.25833 16.3453 3.65104C16.6578 3.32448 16.9985 3.01354 17.3063 2.67917C16.3852 1.82216 15.3042 1.15527 14.125 0.716666C11.9777 -0.0630376 9.62811 -0.0839914 7.46721 0.657291Z" fill="white"/>
<path d="M7.46758 0.65805C9.6283 -0.0837359 11.9779 -0.0633337 14.1254 0.715863C15.3048 1.15744 16.3853 1.82755 17.3051 2.68774C16.9926 3.02211 16.6629 3.33461 16.3441 3.65961C15.7379 4.26482 15.1322 4.86795 14.527 5.46899C13.9237 4.89192 13.1938 4.46387 12.3957 4.21899C11.3744 3.91061 10.2879 3.8895 9.25542 4.15796C8.22292 4.42642 7.28432 4.97408 6.54258 5.74086C5.89513 6.39951 5.40481 7.19589 5.1082 8.07055L1.86914 5.56274C3.02853 3.26361 5.03594 1.50496 7.46758 0.65805Z" fill="#E33629"/>
<path d="M1.00918 8.04688C1.18314 7.18402 1.47218 6.34843 1.86855 5.5625L5.10761 8.07656C4.684 9.3244 4.684 10.6772 5.10761 11.925C4.02845 12.7583 2.94876 13.5958 1.86855 14.4375C0.876598 12.463 0.57407 10.2133 1.00918 8.04688Z" fill="#F8BD00"/>
<path d="M10.698 8.14844H19.998C20.3159 9.89366 20.2299 11.6885 19.7464 13.3953C19.3015 14.9648 18.4371 16.3834 17.2464 17.4984C16.2011 16.6828 15.1511 15.8734 14.1058 15.0578C14.624 14.7082 15.0663 14.2576 15.4063 13.733C15.7462 13.2084 15.9766 12.6205 16.0839 12.0047H10.698C10.6964 10.7203 10.698 9.43437 10.698 8.14844Z" fill="#587DBD"/>
<path d="M1.86719 14.4373C2.9474 13.604 4.02708 12.7665 5.10625 11.9248C5.52376 13.1501 6.31782 14.2121 7.375 14.9592C8.0343 15.4254 8.78359 15.7489 9.575 15.9092C10.3548 16.0542 11.1546 16.0542 11.9344 15.9092C12.7119 15.7778 13.4533 15.485 14.1109 15.0498C15.1562 15.8654 16.2063 16.6748 17.2516 17.4904C16.1076 18.5306 14.7132 19.2559 13.2047 19.5951C11.5397 19.9865 9.80457 19.9678 8.14844 19.5404C6.8386 19.1907 5.61512 18.5742 4.55469 17.7295C3.43239 16.8383 2.51568 15.7153 1.86719 14.4373Z" fill="#319F43"/>
</g>
<defs>
<clipPath id="clip0_1690_221374">
<rect width="20" height="20" fill="white" transform="translate(0.5)"/>
</clipPath>
</defs>
</svg>
