<svg width="20" height="20" viewBox="0 0 20 20" fill="none" xmlns="http://www.w3.org/2000/svg">
<path fill-rule="evenodd" clip-rule="evenodd" d="M11.9962 0.574667C12.1495 0.352118 12.4106 0.2292 12.6797 0.252898C16.9474 0.628647 20.0959 4.38505 19.7201 8.65275C19.6838 9.06537 19.3199 9.37041 18.9072 9.33408C18.4946 9.29775 18.1896 8.93381 18.2259 8.52119C18.4861 5.56605 16.6524 2.91595 13.9503 2.03313L14.1809 2.50737C14.362 2.87988 14.2069 3.3287 13.8344 3.50984C13.4619 3.69098 13.0131 3.53584 12.8319 3.16334L11.9395 1.32799C11.8213 1.08499 11.843 0.797217 11.9962 0.574667ZM2.28217 2.28225C1.97105 2.5926 1.75 3.11968 1.75 4.01002V7.93C1.75 8.85716 1.97443 9.39676 2.28349 9.7066C2.58934 10.0132 3.11121 10.2279 4.00516 10.2102L4.02 10.21H7.94L7.95811 10.2102C8.88302 10.2326 9.41301 10.0164 9.71467 9.71469C10.0163 9.41302 10.2326 8.88303 10.2102 7.95812L10.21 7.94001V4.02003L10.2102 4.00147C10.2324 3.10807 10.0193 2.58752 9.71467 2.28285C9.40641 1.97458 8.86749 1.75001 7.94 1.75001H4.02C3.12373 1.75001 2.59364 1.97155 2.28217 2.28225ZM1.22283 1.22027C1.91636 0.528467 2.89628 0.250008 4.02 0.250008H7.94C9.08252 0.250008 10.0786 0.52544 10.7753 1.22219C11.4737 1.92055 11.7362 2.90638 11.71 4.02902V7.9312C11.736 9.07243 11.4768 10.0739 10.7753 10.7753C10.0739 11.4768 9.07242 11.7361 7.93119 11.71H4.02722C2.90433 11.731 1.91909 11.4653 1.22151 10.7659C0.525573 10.0683 0.25 9.07284 0.25 7.93V4.01002C0.25 2.89036 0.528955 1.91243 1.22283 1.22027ZM7.11327 4.10011C7.0733 4.09352 7.03227 4.0901 6.99043 4.0901C6.9486 4.0901 6.90757 4.09352 6.8676 4.10011H6.71652C6.6813 3.71863 6.3604 3.41993 5.96973 3.41993C5.57906 3.41993 5.25815 3.71863 5.22293 4.10011H3.9502C3.53598 4.10011 3.2002 4.43589 3.2002 4.85011C3.2002 5.26432 3.53598 5.60011 3.9502 5.60011H6.12496C6.02746 5.91026 5.87203 6.19087 5.67337 6.42941C5.62266 6.47258 5.57901 6.52129 5.54266 6.57397C5.12371 7.00097 4.55397 7.26008 3.94043 7.26008C3.52622 7.26008 3.19043 7.59586 3.19043 8.01008C3.19043 8.42429 3.52622 8.76008 3.94043 8.76008C4.75673 8.76008 5.50765 8.49593 6.12257 8.04909C6.64198 8.48533 7.28917 8.76002 8.01015 8.76002C8.42436 8.76002 8.76015 8.42423 8.76015 8.01002C8.76015 7.5958 8.42436 7.26002 8.01015 7.26002C7.71299 7.26002 7.41334 7.15494 7.14355 6.94663C7.39469 6.54101 7.57529 6.08566 7.66843 5.60011H8.01019C8.42441 5.60011 8.76019 5.26432 8.76019 4.85011C8.76019 4.43589 8.42441 4.10011 8.01019 4.10011H7.11327ZM13.33 9.00001C13.33 8.58579 13.6658 8.25001 14.08 8.25001C17.2932 8.25001 19.91 10.8548 19.91 14.08C19.91 17.3042 17.3042 19.91 14.08 19.91C10.8667 19.91 8.25 17.3051 8.25 14.08C8.25 13.6658 8.58579 13.33 9 13.33C9.41421 13.33 9.75 13.6658 9.75 14.08C9.75 16.4748 11.6933 18.41 14.08 18.41C16.4758 18.41 18.41 16.4758 18.41 14.08C18.41 11.6851 16.4668 9.75001 14.08 9.75001C13.6658 9.75001 13.33 9.41422 13.33 9.00001ZM14.0804 10.8098C14.3643 10.8098 14.6238 10.97 14.7509 11.2238L16.459 14.6318C16.5052 14.696 16.5416 14.7678 16.5658 14.845L16.8909 15.4937C17.0765 15.864 16.9268 16.3147 16.5565 16.5003C16.1862 16.6859 15.7355 16.5361 15.5499 16.1658L15.3765 15.8198H12.7843L12.6109 16.1658C12.4253 16.5361 11.9747 16.6859 11.6044 16.5003C11.2341 16.3147 11.0843 15.864 11.2699 15.4937L13.4099 11.2238C13.5371 10.97 13.7966 10.8098 14.0804 10.8098ZM13.5361 14.3198H14.6248L14.0804 13.2337L13.5361 14.3198ZM1 11.25C1.41421 11.25 1.75 11.5858 1.75 12C1.75 14.9666 3.8091 17.4456 6.57819 18.0881L6.30688 17.6359C6.09377 17.2807 6.20894 16.82 6.56412 16.6069C6.91931 16.3938 7.38 16.509 7.59312 16.8641L8.64312 18.6141C8.78214 18.8458 8.78578 19.1344 8.65265 19.3695C8.51952 19.6047 8.2702 19.75 8 19.75C3.71579 19.75 0.25 16.2842 0.25 12C0.25 11.5858 0.585786 11.25 1 11.25Z" fill="#1C324A"/>
</svg>
