<svg width="66" height="66" viewBox="0 0 66 66" fill="none" xmlns="http://www.w3.org/2000/svg">
<path fill-rule="evenodd" clip-rule="evenodd" d="M6 33C6 47.9117 18.0883 60 33 60C47.9117 60 60 47.9117 60 33C60 18.0883 47.9117 6 33 6C18.0883 6 6 18.0883 6 33ZM33 66C14.7746 66 -6.45818e-07 51.2254 -1.44248e-06 33C-2.23913e-06 14.7746 14.7746 -6.45818e-07 33 -1.44248e-06C51.2254 -2.23913e-06 66 14.7746 66 33C66 51.2254 51.2254 66 33 66Z" fill="#E9F7FC"/>
<path fill-rule="evenodd" clip-rule="evenodd" d="M33.0153 2.85014C33.1809 1.20159 34.6517 -0.000503612 36.3002 0.165184C39.5018 0.486953 42.6451 1.27586 45.6288 2.51174C49.6325 4.17015 53.2704 6.60091 56.3347 9.66524C59.3991 12.7296 61.8298 16.3675 63.4882 20.3712C64.7241 23.3549 65.513 26.4982 65.8348 29.6998C66.0005 31.3483 64.7984 32.819 63.1499 32.9847C61.5013 33.1504 60.0306 31.9483 59.8649 30.2998C59.6016 27.6803 58.9561 25.1085 57.945 22.6673C56.5881 19.3915 54.5993 16.4151 52.0921 13.9079C49.5849 11.4007 46.6085 9.4119 43.3327 8.05502C40.8915 7.04385 38.3197 6.39837 35.7002 6.13511C34.0517 5.96942 32.8496 4.49869 33.0153 2.85014Z" fill="url(#paint0_linear_1592_8516)"/>
<defs>
<linearGradient id="paint0_linear_1592_8516" x1="31.5" y1="-4" x2="31.5" y2="71.5" gradientUnits="userSpaceOnUse">
<stop stop-color="#27AAE1"/>
<stop offset="1" stop-color="#6AD3FF"/>
</linearGradient>
</defs>
</svg>
